Coordinates
version=1
nRows=24
nColumns=24
inDegrees=yes

Units are S.I. units (second, meters, Newtons, ...)
Angles are in degrees.

endheader
time	pelvis_tilt	pelvis_list	pelvis_rotation	pelvis_tx	pelvis_ty	pelvis_tz	hip_flexion_r	hip_adduction_r	hip_rotation_r	knee_angle_r	ankle_angle_r	subtalar_angle_r	mtp_angle_r	hip_flexion_l	hip_adduction_l	hip_rotation_l	knee_angle_l	ankle_angle_l	subtalar_angle_l	mtp_angle_l	lumbar_extension	lumbar_bending	lumbar_rotation
      3.59000000	    -12.57722255	      9.49807532	     -2.42115232	     -0.87475132	     -0.03915729	     -0.29810679	     15.91755835	    -14.22526650	     -6.67209986	    -60.04806998	    -28.48975539	    -18.58282800	     14.14081373	     31.16965498	     10.66656004	     -4.79919020	    -21.73249260	     -3.77826017	    -17.21194323	     -3.74189718	      9.88210830	    -10.04528591	      4.17896597
      3.59500000	    -12.45384279	      9.44916449	     -2.48278122	     -0.86742081	     -0.03764044	     -0.29833178	     16.87757980	    -14.06129537	     -6.31599159	    -61.03239804	    -27.27205298	    -19.03786602	     14.14518943	     30.37092206	     10.66865546	     -4.85793248	    -21.42320939	     -3.36344156	    -16.98325169	     -3.51078456	      9.70959839	     -9.98669502	      4.17270171
      3.60000000	    -12.33689336	      9.32852802	     -2.51023810	     -0.86001962	     -0.03606845	     -0.29864990	     17.78760850	    -13.83778504	     -6.05403517	    -61.86331929	    -26.06925760	    -19.30740155	     14.23931487	     29.54826511	     10.63123322	     -4.78319517	    -21.08654606	     -2.96015684	    -16.80381814	     -3.27641267	      9.55051136	     -9.85037032	      4.12444574
      3.60500000	    -12.22421339	      9.16528832	     -2.54666722	     -0.85266172	     -0.03447003	     -0.29896733	     18.68366410	    -13.56688760	     -5.81682364	    -62.57615510	    -24.88657586	    -19.38195026	     14.45122339	     28.72819647	     10.54501329	     -4.69779324	    -20.74636288	     -2.57810007	    -16.62484356	     -3.05051098	      9.39118483	     -9.66354533	      4.07828153
      3.61000000	    -12.12255097	      8.96396360	     -2.58136474	     -0.84534216	     -0.03287375	     -0.29929967	     19.56844265	    -13.25876246	     -5.61232022	    -63.17813059	    -23.72196551	    -19.25890838	     14.78205128	     27.92046150	     10.41912714	     -4.59505259	    -20.40782167	     -2.21009124	    -16.44411601	     -2.83492528	      9.24006995	     -9.43291429	      4.02392819
      3.61500000	    -12.03546369	      8.73836400	     -2.60310210	     -0.83805344	     -0.03130571	     -0.29964842	     20.44268076	    -12.93319867	     -5.44760087	    -63.67616467	    -22.57611210	    -18.95989917	     15.23766924	     27.12817393	     10.27196046	     -4.46655508	    -20.06842708	     -1.85837709	    -16.26884184	     -2.63317930	      9.10024106	     -9.17577048	      3.95843659
      3.62000000	    -11.96373518	      8.48841982	     -2.60413572	     -0.83079868	     -0.02977051	     -0.30004617	     21.30269045	    -12.59371224	     -5.32766343	    -64.06857214	    -21.46694984	    -18.52773053	     15.81089331	     26.34930955	     10.10987044	     -4.29806584	    -19.72218950	     -1.52658973	    -16.10883949	     -2.46194422	      8.97353193	     -8.89202491	      3.87295786
      3.62500000	    -11.90629977	      8.22968062	     -2.58108429	     -0.82352567	     -0.02828421	     -0.30049908	     22.14479949	    -12.26188118	     -5.25043287	    -64.35958474	    -20.40037967	    -17.97970651	     16.53399065	     25.57209346	      9.95187272	     -4.07946858	    -19.35434845	     -1.19272567	    -15.97352983	     -2.32529325	      8.86645943	     -8.59611650	      3.77213180
      3.63000000	    -11.84847820	      7.93112617	     -2.53423462	     -0.81636339	     -0.02678289	     -0.30104197	     22.93009462	    -11.89682399	     -5.18935285	    -64.44210714	    -19.80442168	    -17.67457371	     19.44621335	     24.79823942	      9.77346406	     -3.78805960	    -18.98043024	     -0.95656580	    -15.95921413	     -2.34840092	      8.73641984	     -8.25216592	      3.62911295
      3.63500000	    -11.81503794	      7.57171077	     -2.47273669	     -0.80926717	     -0.02535442	     -0.30149647	     23.73560905	    -11.45617308	     -5.21532171	    -64.53563731	    -18.80287159	    -17.10454548	     19.79991796	     24.06749617	      9.51064635	     -3.55944933	    -18.63925610	     -0.61360250	    -15.80920520	     -2.28728529	      8.62085087	     -7.85661048	      3.44864846
      3.64000000	    -11.77620167	      7.24648313	     -2.36488403	     -0.80218192	     -0.02398320	     -0.30200097	     24.50056255	    -11.08447279	     -5.29516821	    -64.54637061	    -17.72250559	    -16.44012697	     20.24743263	     23.32003386	      9.30031202	     -3.26917242	    -18.27094060	     -0.31206124	    -15.66587571	     -2.26014132	      8.49892317	     -7.50750419	      3.25377992
      3.64500000	    -11.72514608	      6.95055391	     -2.20095550	     -0.79506218	     -0.02262866	     -0.30256205	     25.20174973	    -10.78326024	     -5.45186188	    -64.45180062	    -16.60559350	    -15.76862834	     20.80886457	     22.54816528	      9.13471946	     -2.98276941	    -17.87251608	     -0.06363167	    -15.50412665	     -2.28272192	      8.37027813	     -7.20119554	      3.03335003
      3.65000000	    -11.58296263	      6.68807051	     -2.09661997	     -0.78804955	     -0.02124213	     -0.30316288	     25.80295211	    -10.50310191	     -5.52742321	    -64.23737484	    -15.69284136	    -15.21472220	     22.35063381	     21.65747105	      9.00824117	     -2.65519400	    -17.41634109	      0.17756532	    -15.51880735	     -2.69430567	      8.13228959	     -6.90422713	      2.87236018
      3.65500000	    -11.59705225	      6.30762308	     -1.84208488	     -0.78104156	     -0.02002610	     -0.30378569	     26.49865511	    -10.13637449	     -5.81512986	    -63.94171782	    -14.77825592	    -14.77216910	     22.78536643	     20.97522070	      8.75412400	     -2.35857980	    -17.04711746	      0.52008384	    -15.19921667	     -2.64154722	      8.04587246	     -6.52215888	      2.51362190
      3.66000000	    -11.52676798	      5.98185601	     -1.62411385	     -0.77406790	     -0.01879124	     -0.30439811	     27.09442213	     -9.82894146	     -6.06232841	    -63.56736873	    -13.83076461	    -14.30029346	     23.29788158	     20.18311739	      8.55009254	     -2.08864612	    -16.61669059	      0.78608786	    -14.99069319	     -2.62770911	      7.87501228	     -6.18767870	      2.21712192
      3.66500000	    -11.32658241	      5.68078205	     -1.45398169	     -0.76711490	     -0.01744633	     -0.30499564	     27.51949164	     -9.53271345	     -6.25898825	    -63.04780896	    -13.09051717	    -14.02264684	     24.63532536	     19.21802597	      8.36769915	     -1.81236083	    -16.11249173	      0.99273654	    -14.89724875	     -2.77375890	      7.56335263	     -5.86609493	      1.98047006
      3.67000000	    -11.35494249	      5.34587061	     -1.17320951	     -0.76020202	     -0.01643472	     -0.30563637	     28.17205359	     -9.23314830	     -6.56548826	    -62.51310529	    -12.29950172	    -13.74707627	     24.98263164	     18.55437955	      8.14156714	     -1.57098592	    -15.70021477	      1.27182118	    -14.58626284	     -2.69145840	      7.48878166	     -5.52788805	      1.61627983
      3.67500000	    -11.27063180	      5.04206577	     -0.92387526	     -0.75326395	     -0.01536706	     -0.30626468	     28.67651987	     -8.96873767	     -6.85139647	    -61.88643327	    -11.54182347	    -13.50314734	     25.35989956	     17.74528822	      7.94166375	     -1.35029355	    -15.23462655	      1.50923263	    -14.33985631	     -2.61484887	      7.30127339	     -5.21330849	      1.29964045
      3.68000000	    -11.18772665	      4.74591898	     -0.69379765	     -0.74634196	     -0.01437023	     -0.30684364	     29.16906606	     -8.69972282	     -7.11442966	    -61.18466462	    -10.88167777	    -13.34785662	     25.68085707	     16.93929885	      7.73500162	     -1.14236876	    -14.76089944	      1.72275966	    -14.12359043	     -2.53579469	      7.11730599	     -4.90459621	      0.99727658
      3.68500000	    -11.08158400	      4.47147565	     -0.44789816	     -0.73937658	     -0.01343828	     -0.30747633	     29.60812610	     -8.48040240	     -7.40897489	    -60.40922595	    -10.29485528	    -13.25468248	     25.98398042	     16.10504671	      7.55262551	     -0.94016640	    -14.27834333	      1.93976349	    -13.90471745	     -2.43892329	      6.91725355	     -4.61354636	      0.71570311
      3.69000000	    -11.00531111	      4.20521020	     -0.22871391	     -0.73245356	     -0.01261952	     -0.30801947	     30.07491365	     -8.24235964	     -7.64938284	    -59.57511788	     -9.79602966	    -13.21027529	     26.19614975	     15.31562206	      7.35940444	     -0.75306789	    -13.80731586	      2.13426279	    -13.71164031	     -2.35092034	      6.74436089	     -4.32875077	      0.41639277
      3.69500000	    -10.92101839	      3.96301936	     -0.00391466	     -0.72550425	     -0.01189290	     -0.30858659	     30.51201782	     -8.05042319	     -7.91442481	    -58.67990989	     -9.36484898	    -13.21576022	     26.34044677	     14.52002597	      7.18929598	     -0.57020940	    -13.33832421	      2.33070846	    -13.52569631	     -2.25899907	      6.57176873	     -4.06472861	      0.16602522
      3.70000000	    -10.85335829	      3.73516618	      0.20817619	     -0.71856965	     -0.01127539	     -0.30909890	     30.95547114	     -7.86416394	     -8.15105385	    -57.73069254	     -9.01064103	    -13.23964661	     26.39573167	     13.75241565	      7.02233511	     -0.39870620	    -12.88117533	      2.52031077	    -13.35400109	     -2.17498728	      6.41579582	     -3.81459572	     -0.09488762
      3.70500000	    -10.81063409	      3.52366309	      0.40708650	     -0.71163870	     -0.01076920	     -0.30957377	     31.41405544	     -7.68823957	     -8.35814261	    -56.72979194	     -8.73892369	    -13.26113867	     26.36640659	     13.02044510	      6.86202001	     -0.24217162	    -12.43457729	      2.69986297	    -13.18988836	     -2.10365511	      6.28695146	     -3.57724697	     -0.35778447
